<?xml version="1.0" standalone="no"?> <!DOCTYPE svg PUBLIC "-//W3C//DTD SVG 1.0//EN" "http://www.w3.org/TR/2001/REC-SVG-20010904/DTD/svg10.dtd" > <svg xmlns="http://www.w3.org/2000/svg" width="100%" height="100%">
<defs >
<font id="avenirnextltprodemi" horiz-adv-x="462" ><font-face
    font-family="AvenirNext LT Pro Regular"
    units-per-em="1000"
    panose-1="2 11 7 4 2 2 2 2 2 4"
    ascent="756"
    descent="-244"
    alphabetic="0" />
<missing-glyph horiz-adv-x="512" d="M512 718V0H0V718H512ZM462 50V667H50V50H462ZM332 454T332 482T310 534T256 559Q185 559 174 464L124 472Q131 541 167 575T258 609T348 573Q383 536 383 490T370 418T320 358T277 306Q271 286 271 234H225L223 251Q223 308
237 334T282 390Q312 420 322 437ZM222 117V184H278V117H222Z" />
<glyph unicode=" " glyph-name="space" horiz-adv-x="250" />
<glyph unicode="!" glyph-name="exclam" horiz-adv-x="340" d="M90 38T90 70T114 125T170 148T226 126T250 72T226 17T170 -6T114 16ZM230 708V222H110V708H230Z" />
<glyph unicode="&quot;" glyph-name="quotedbl" horiz-adv-x="459" d="M267 444V708H369V444H267ZM90 444V708H192V444H90Z" />
<glyph unicode="#" glyph-name="numbersign" horiz-adv-x="592" d="M356 415H253L236 293H339L356 415ZM47 209V293H148L166 415H76V499H177L207 708H295L265 499H368L398 708H485L455 499H545V415H443L426 293H516V209H416L385 0H298L328 209H224L194 0H107L137 209H47Z" />
<glyph unicode="$" glyph-name="dollar" horiz-adv-x="610" d="M423 194Q423 236 399 260T330 298V92Q372 94 398 122Q424 152 423 194ZM187 526Q187 456 276 430V618Q238 614 212 590T187 526ZM330 786V720Q458 718 538 649L457 565Q409 618 330 618V416Q488
368 526 287Q544 250 543 202Q543 103 481 47T330 -11V-83H276V-11Q132 -6 41 82L129 166Q156 134 197 114T276 92V314Q174 342 120 387T67 518Q67 604 129 658T276 718V786H330Z" />
<glyph unicode="%" glyph-name="percent" horiz-adv-x="930" d="M215 6L631 740L714 702L298 -32L215 6ZM316 496T316 534T290 598T226 624T162 598T136 534T162 470T226 444T290 470ZM40 456T40 534T94 666T226 720T358 666T412 534T358 402T226 348T94 402ZM794
136T794 174T768 238T704 264T640 238T614 174T640 110T704 84T768 110ZM518 96T518 174T572 306T704 360T836 306T890 174T836 42T704 -12T572 42Z" />
<glyph unicode="&amp;" glyph-name="ampersand" horiz-adv-x="741" d="M172 197Q172 148 208 117T289 86Q368 86 421 159L270 316Q172 280 172 197ZM328 629Q293 628 269 606T245 539T308 437Q410 480 410 550Q410 583 386 606T328 629ZM285 -14Q186 -14 117 40T48
192Q48 327 202 393Q126 471 126 554Q126 638 186 682T326 726Q408 726 465 682T522 554Q522 433 377 366L493 245L575 374H712L570 169L735 0H575L497 81Q416 -14 285 -14Z" />
<glyph unicode="&apos;" glyph-name="quotesingle" horiz-adv-x="282" d="M90 444V708H192V444H90Z" />
<glyph unicode="(" glyph-name="parenleft" horiz-adv-x="330" d="M36 46T36 288T182 732L266 677Q139 501 139 288T266 -101L182 -156Q36 46 36 288Z" />
<glyph unicode=")" glyph-name="parenright" horiz-adv-x="330" d="M294 530T294 288T148 -156L64 -101Q191 75 191 288T64 677L148 732Q294 530 294 288Z" />
<glyph unicode="*" glyph-name="asterisk" horiz-adv-x="463" d="M274 708V566L409 610L435 530L299 486L385 369L316 319L230 437L146 322L79 373L165 486L28 533L54 613L190 566V708H274Z" />
<glyph unicode="+" glyph-name="plus" horiz-adv-x="666" d="M62 354H282V574H384V354H604V252H384V32H282V252H62V354Z" />
<glyph unicode="," glyph-name="comma" horiz-adv-x="260" d="M24 -126L94 138H210L125 -126H24Z" />
<glyph unicode="-" glyph-name="hyphen" horiz-adv-x="320" d="M280 297V195H40V297H280Z" />
<glyph unicode="." glyph-name="period" horiz-adv-x="260" d="M50 38T50 70T74 125T130 148T186 126T210 72T186 17T130 -6T74 16Z" />
<glyph unicode="/" glyph-name="slash" horiz-adv-x="389" d="M386 726L74 -48L-9 -18L303 758L386 726Z" />
<glyph unicode="0" glyph-name="zero" horiz-adv-x="610" d="M178 379Q178 84 306 84Q404 84 427 269Q432 310 432 354T427 440T410 526T370 598Q344 626 306 626T241 598T196 509Q178 447 178 379ZM555 528T555 354T490 81Q426 -18 306 -18T120 81T55 354Q54
528 120 627T306 726T490 627Q555 528 555 354Z" />
<glyph unicode="1" glyph-name="one" horiz-adv-x="610" d="M279 0V562L139 447L69 530L290 708H399V0H279Z" />
<glyph unicode="2" glyph-name="two" horiz-adv-x="610" d="M69 0V110L342 378Q414 448 414 507T382 596T300 626T220 592Q188 558 181 505L64 523Q75 612 141 669T304 726T470 671T539 519Q540 456 510 406T425 305L221 110H540V0H69Z" />
<glyph unicode="3" glyph-name="three" horiz-adv-x="610" d="M212 321V417H244Q395 417 395 524Q394 570 362 598T285 626T210 601T170 535L57 564Q76 636 140 681T295 726T451 675T516 532Q516 474 481 430T389 372V370Q454 357 494 311T535 200Q535 98 461
40Q386 -18 290 -18Q84 -18 31 149L143 184Q156 140 193 112T284 84T376 113T414 193T386 272Q338 320 242 321H212Z" />
<glyph unicode="4" glyph-name="four" horiz-adv-x="610" d="M348 250V567H346L145 250H348ZM348 0V147H21V253L322 708H466V250H565V147H466V0H348Z" />
<glyph unicode="5" glyph-name="five" horiz-adv-x="610" d="M413 226Q413 360 244 360Q166 360 90 321L102 708H505V600H216L209 447Q242 456 292 456Q400 456 468 396T536 228Q536 118 462 50T290 -18Q99 -18 39 137L148 177Q162 136 198 110T286 84T375 120Q413
158 413 226Z" />
<glyph unicode="6" glyph-name="six" horiz-adv-x="610" d="M168 284T167 224T204 124T303 84T402 122T439 222Q439 284 402 323Q364 362 304 362T206 323ZM336 457Q430 458 496 392T562 222T488 50T304 -18Q193 -18 119 52T45 225Q44 282 62 328T118 434L295
708H441L260 446L261 445Q290 457 336 457Z" />
<glyph unicode="7" glyph-name="seven" horiz-adv-x="610" d="M51 600V708H532V598L249 0H108L406 600H51Z" />
<glyph unicode="8" glyph-name="eight" horiz-adv-x="610" d="M356 322T304 322T218 288Q182 254 182 200T216 115Q250 83 304 83T392 115T427 200Q428 254 392 288ZM304 627Q260 628 232 600T203 528Q203 484 231 454Q260 424 304 424T378 454T408 528T378 599Q348
627 304 627ZM210 726T306 726T465 674Q529 622 529 548Q529 409 419 374V372Q476 358 514 311T552 200Q552 98 482 40T305 -18T128 40T58 200Q58 266 96 312T191 372V374Q81 414 81 529Q82 618 146 672Z" />
<glyph unicode="9" glyph-name="nine" horiz-adv-x="610" d="M442 424T442 484T404 585T306 626T208 586T170 486Q170 424 207 385T304 346T404 385Q442 424 442 484ZM273 251Q179 250 113 316T47 486Q46 590 120 658T305 726T490 656T564 483Q564 426 546 380T491
274L314 0H168L350 263L349 264Q320 251 273 251Z" />
<glyph unicode=":" glyph-name="colon" horiz-adv-x="300" d="M70 376T70 408T94 463T150 486T206 464T230 410T206 355T150 332T94 354ZM70 38T70 70T94 125T150 148T206 126T230 72T206 17T150 -6T94 16Z" />
<glyph unicode=";" glyph-name="semicolon" horiz-adv-x="300" d="M70 377T70 409T94 464T150 487T206 465T230 411T206 356T150 333T94 355ZM40 -126L110 138H232L147 -126H40Z" />
<glyph unicode="&lt;" glyph-name="less" horiz-adv-x="666" d="M586 42L80 267V339L586 564V454L248 303L586 152V42Z" />
<glyph unicode="=" glyph-name="equal" horiz-adv-x="666" d="M80 264H586V162H80V264ZM80 444H586V342H80V444Z" />
<glyph unicode="&gt;" glyph-name="greater" horiz-adv-x="666" d="M80 564L586 339V267L80 42V152L418 303L80 454V564Z" />
<glyph unicode="?" glyph-name="question" horiz-adv-x="519" d="M190 38T190 70T214 125T270 148T326 126T350 72T326 17T270 -6T214 16ZM328 209H210V247Q210 295 224 326T276 393L321 436Q367 478 367 522Q368 566 342 591Q316 617 272 617Q228 616 200 586T171
513L48 524Q59 618 123 672Q188 726 280 726T433 675T494 533Q494 475 471 439Q448 404 400 362T340 298T328 235V209Z" />
<glyph unicode="@" glyph-name="at" horiz-adv-x="800" d="M213 330Q212 411 268 480T409 549Q446 550 472 534T507 494H508L516 534H605L566 345Q557 291 557 282Q557 242 589 242Q628 242 654 284T679 397Q680 515 606 580T410 645Q288 646 208 562Q129 478
129 350T211 143Q294 65 430 65T670 163L725 103Q611 -18 427 -18Q244 -18 138 86T32 350Q32 512 144 619T405 726Q555 726 662 644Q768 562 768 405Q768 290 710 225T570 160Q530 160 506 179T482 227H477Q436 160 363 160Q289 160 251 204T213 330ZM314 320Q314
243 378 243Q428 242 453 286T478 379Q478 467 412 467Q368 466 341 420T314 320Z" />
<glyph unicode="A" glyph-name="A" horiz-adv-x="706" d="M240 270H460L351 558L240 270ZM-8 0L300 708H409L714 0H570L504 162H197L133 0H-8Z" />
<glyph unicode="B" glyph-name="B" horiz-adv-x="647" d="M204 312V106H317Q475 106 475 212Q475 266 438 289T322 312H204ZM316 420Q445 420 445 516Q445 564 411 584T305 604H204V420H316ZM78 0V708H354Q444 708 508 664T571 530Q571 472 538 432T448 375V373Q517
364 559 320T601 214Q601 95 521 47Q441 0 333 0H78Z" />
<glyph unicode="C" glyph-name="C" horiz-adv-x="696" d="M184 468T183 354T248 168T424 95Q534 95 595 177L696 106Q596 -18 426 -18T150 86T44 357Q44 522 152 624T428 726Q502 726 574 698T685 618L589 542Q536 615 428 615T252 541Q184 468 183 354Z" />
<glyph unicode="D" glyph-name="D" horiz-adv-x="764" d="M204 110H309Q512 110 568 256Q584 300 585 354Q585 600 309 600H204V110ZM78 0V708H329Q481 708 593 632Q652 592 686 520T720 357Q720 175 599 87Q478 0 329 0H78Z" />
<glyph unicode="E" glyph-name="E" horiz-adv-x="610" d="M78 0V708H547V598H204V418H529V312H204V112H565V0H78Z" />
<glyph unicode="F" glyph-name="F" horiz-adv-x="573" d="M78 0V708H535V598H204V404H516V298H204V0H78Z" />
<glyph unicode="G" glyph-name="G" horiz-adv-x="773" d="M698 404V37Q584 -18 422 -18T152 86T44 356T152 624T431 726Q601 726 697 637L610 543Q582 574 533 594T429 615Q319 615 251 541T183 354Q184 241 252 168T418 95T576 120V300H427V404H698Z" />
<glyph unicode="H" glyph-name="H" horiz-adv-x="739" d="M78 0V708H204V422H535V708H661V0H535V314H204V0H78Z" />
<glyph unicode="I" glyph-name="I" horiz-adv-x="282" d="M78 0V708H204V0H78Z" />
<glyph unicode="J" glyph-name="J" horiz-adv-x="498" d="M121 171Q141 95 220 95Q300 95 300 233V708H426V229Q426 48 303 -2Q264 -18 197 -18T77 24T5 138L121 171Z" />
<glyph unicode="K" glyph-name="K" horiz-adv-x="689" d="M78 0V708H204V402H207L503 708H673L342 381L695 0H518L207 355H204V0H78Z" />
<glyph unicode="L" glyph-name="L" horiz-adv-x="511" d="M78 0V708H204V112H505V0H78Z" />
<glyph unicode="M" glyph-name="M" horiz-adv-x="920" d="M78 0V708H275L459 205H462L644 708H842V0H717V569H715L500 0H412L200 569H198V0H78Z" />
<glyph unicode="N" glyph-name="N" horiz-adv-x="780" d="M78 0V708H245L574 178H576V708H702V0H542L206 547H204V0H78Z" />
<glyph unicode="O" glyph-name="O" horiz-adv-x="849" d="M181 354Q181 242 249 168Q316 94 424 95Q532 94 600 168T668 354T600 541Q532 615 424 615T248 541Q180 466 181 354ZM44 192T44 358T150 625T424 726Q591 726 698 625T805 358Q806 192 698 86Q590 -18
424 -18T151 86Q44 192 44 358Z" />
<glyph unicode="P" glyph-name="P" horiz-adv-x="610" d="M204 399H292Q449 399 449 503Q450 560 408 581T296 602H204V399ZM78 0V708H309Q576 708 576 503Q576 393 500 343T301 293H204V0H78Z" />
<glyph unicode="Q" glyph-name="Q" horiz-adv-x="852" d="M418 613Q314 613 244 542Q175 470 175 360T241 180Q308 110 414 110T588 180T655 361T588 542T418 613ZM841 102V0H414Q242 0 140 96T37 358Q36 522 144 624T416 726T686 624T792 363Q792 274 756 208T666
104V102H841Z" />
<glyph unicode="R" glyph-name="R" horiz-adv-x="629" d="M459 506Q459 602 318 602H204V403H307Q459 403 459 506ZM78 0V708H324Q478 708 546 624Q584 576 585 503Q585 430 542 380T423 314L612 0H460L296 300H204V0H78Z" />
<glyph unicode="S" glyph-name="S" horiz-adv-x="574" d="M303 621Q260 620 222 596T184 536T192 484T225 452Q249 437 302 421Q354 404 376 396Q526 343 526 208Q526 98 452 40T288 -18Q111 -18 25 83L115 167Q141 132 184 110T274 89Q322 89 360 115T398 187T380
249Q347 278 309 292T234 318Q162 340 109 382T56 521T132 672T325 726Q441 726 521 650L439 560Q394 621 303 621Z" />
<glyph unicode="T" glyph-name="T" horiz-adv-x="568" d="M221 0V598H4V708H564V598H347V0H221Z" />
<glyph unicode="U" glyph-name="U" horiz-adv-x="714" d="M642 708V260Q642 134 562 58T357 -18T152 58T72 260V708H198V265Q198 194 236 144T357 95Q440 94 478 144T516 265V708H642Z" />
<glyph unicode="V" glyph-name="V" horiz-adv-x="653" d="M270 0L-10 708H131L326 163H330L527 708H663L379 0H270Z" />
<glyph unicode="W" glyph-name="W" horiz-adv-x="1004" d="M213 0L6 708H144L281 188H283L439 708H569L722 188H724L864 708H998L791 0H669L503 531H501L335 0H213Z" />
<glyph unicode="X" glyph-name="X" horiz-adv-x="658" d="M4 0L249 378L29 708H181L327 466L471 708H616L400 375L654 0H495L322 278L156 0H4Z" />
<glyph unicode="Y" glyph-name="Y" horiz-adv-x="622" d="M249 0V307L-17 708H137L315 410L495 708H641L375 307V0H249Z" />
<glyph unicode="Z" glyph-name="Z" horiz-adv-x="611" d="M35 0V114L420 598H41V708H570V594L183 112H576V0H35Z" />
<glyph unicode="[" glyph-name="bracketleft" horiz-adv-x="330" d="M252 732V654H162V-78H252V-156H60V732H252Z" />
<glyph unicode="\" glyph-name="backslash" horiz-adv-x="389" d="M3 726L86 758L398 -18L315 -48L3 726Z" />
<glyph unicode="]" glyph-name="bracketright" horiz-adv-x="330" d="M78 -156V-78H168V654H78V732H270V-156H78Z" />
<glyph unicode="^" glyph-name="asciicircum" horiz-adv-x="666" d="M187 343H69L292 708H374L597 343H479L332 582L187 343Z" />
<glyph unicode="_" glyph-name="underscore" horiz-adv-x="500" d="M500 -75V-150H0V-75H500Z" />
<glyph unicode="`" glyph-name="grave" horiz-adv-x="260" d="M78 708L177 564H83L-58 708H78Z" />
<glyph unicode="a" glyph-name="a" horiz-adv-x="550" d="M158 139Q158 79 242 79Q304 80 336 112T368 202V219H341Q158 219 158 139ZM368 312Q368 400 244 400Q182 400 127 345L65 418Q147 494 268 494Q436 494 472 364Q482 330 482 292V0H370V61H367Q326 -12
208 -12Q148 -12 94 24Q38 60 38 137Q38 280 276 297Q318 300 368 300V312Z" />
<glyph unicode="b" glyph-name="b" horiz-adv-x="635" d="M469 242Q468 304 432 350T332 396T229 348T190 240T229 133T332 86T432 133T469 242ZM74 756H194V419H197Q256 494 358 494T526 422T591 242T526 60T355 -14Q304 -14 259 8T190 72H188V0H74V756Z" />
<glyph unicode="c" glyph-name="c" horiz-adv-x="488" d="M301 394Q239 394 204 348T169 240T205 132T306 86T406 129L481 53Q418 -14 306 -14T119 55T44 239T118 424T301 494Q354 494 404 474T482 419L400 347Q386 366 358 380T301 394Z" />
<glyph unicode="d" glyph-name="d" horiz-adv-x="634" d="M165 242Q166 180 202 133T302 86T405 133T444 240T405 348T302 396T202 350T165 242ZM560 756V0H446V72H444Q420 30 375 8T279 -14Q172 -14 108 60T43 242T108 422T276 494T437 419H440V756H560Z" />
<glyph unicode="e" glyph-name="e" horiz-adv-x="574" d="M530 234Q530 213 529 202H164Q168 152 208 118T301 84Q384 84 428 146L508 82Q438 -14 314 -14T116 54Q44 122 44 237T116 423T295 494T466 427T530 234ZM410 288Q410 338 381 371T298 404T206 371T164 288H410Z" />
<glyph unicode="f" glyph-name="f" horiz-adv-x="324" d="M91 551Q91 768 285 768Q321 768 346 761L338 659Q315 666 292 666Q211 666 211 558V480H322V384H211V0H91V384H0V480H91V551Z" />
<glyph unicode="g" glyph-name="g" horiz-adv-x="632" d="M368 396T304 396T204 352Q166 308 166 246Q166 182 204 136T304 91T406 136T446 244T407 352ZM446 480H560V43Q560 -92 492 -166T289 -240Q228 -240 162 -219T51 -161L120 -68Q191 -136 288 -136Q440
-136 440 29V64H438Q384 -8 280 -8T110 64T44 243T108 422T282 494T444 408H446V480Z" />
<glyph unicode="h" glyph-name="h" horiz-adv-x="584" d="M339 494Q428 494 472 438T516 300V0H396V264Q396 391 307 391Q254 390 224 352T194 262V0H74V756H194V413H196Q212 446 250 470T339 494Z" />
<glyph unicode="i" glyph-name="i" horiz-adv-x="268" d="M57 614T57 643T79 694Q102 716 134 715T188 694T211 643Q210 612 188 592T134 571T79 592Q57 614 57 643ZM74 0V480H194V0H74Z" />
<glyph unicode="j" glyph-name="j" horiz-adv-x="268" d="M57 614T57 643T79 694Q102 716 134 715T188 694T211 643Q210 612 188 592T134 571T79 592Q57 614 57 643ZM74 480H194V-29Q194 -185 108 -224Q72 -240 31 -240T-34 -234L-24 -132Q-8 -136 20 -136Q74
-136 74 -34V480Z" />
<glyph unicode="k" glyph-name="k" horiz-adv-x="543" d="M74 0V756H194V278H197L379 480H533L325 263L546 0H387L197 246H194V0H74Z" />
<glyph unicode="l" glyph-name="l" horiz-adv-x="268" d="M74 0V756H194V0H74Z" />
<glyph unicode="m" glyph-name="m" horiz-adv-x="890" d="M386 290Q386 394 294 394Q246 394 219 356T192 264V0H72V480H186V403H188Q205 442 244 468T337 494Q442 494 487 403Q537 494 635 494Q734 494 778 438T822 300V0H702V266Q702 394 612 394Q560 394 533
354T506 262V0H386V290Z" />
<glyph unicode="n" glyph-name="n" horiz-adv-x="582" d="M72 0V480H186V403H188Q206 442 246 468T337 494Q426 494 470 438T514 300V0H394V266Q394 394 304 394Q250 394 221 356T192 264V0H72Z" />
<glyph unicode="o" glyph-name="o" horiz-adv-x="610" d="M166 304T166 242T202 133T305 86T408 133T444 242T408 350T305 396T202 350ZM44 130T44 242T119 424T305 494T491 424T566 242T490 58T305 -14T120 58Z" />
<glyph unicode="p" glyph-name="p" horiz-adv-x="633" d="M467 242Q466 304 430 350T330 396T227 348T188 240T227 133T330 86T430 133T467 242ZM72 480H187V413H190Q212 446 254 470T356 494Q458 494 524 422T589 242T524 60T353 -14Q303 -14 260 7T194 64H192V-240H72V480Z"
/>
<glyph unicode="q" glyph-name="q" horiz-adv-x="632" d="M165 242Q166 180 202 133T302 86T405 133T444 240T405 348T302 396T202 350T165 242ZM560 480V-240H440V64H438Q415 28 372 7T279 -14Q172 -14 108 60T43 242T108 422T276 494Q336 494 378 470T442 413H445V480H560Z"
/>
<glyph unicode="r" glyph-name="r" horiz-adv-x="364" d="M72 0V480H187V400H189Q209 442 246 468Q282 494 314 494T358 491V381Q338 386 314 386T266 376Q226 359 209 323Q192 286 192 257V0H72Z" />
<glyph unicode="s" glyph-name="s" horiz-adv-x="444" d="M153 352Q153 327 176 315Q200 302 244 292Q318 275 365 244T412 139Q412 64 356 25T227 -14Q88 -14 15 65L94 139Q140 79 217 79Q248 79 271 93Q294 108 294 136T270 178T182 206T80 250T42 348T98 455T220
494Q354 494 413 421L335 352Q295 404 224 404T153 352Z" />
<glyph unicode="t" glyph-name="t" horiz-adv-x="340" d="M87 384H3V480H87V619H205V480H325V384H205V161Q205 125 218 106T265 87T319 97L323 3Q289 -10 243 -10Q155 -10 121 36T87 160V384Z" />
<glyph unicode="u" glyph-name="u" horiz-adv-x="582" d="M510 480V0H396V77H394Q376 38 336 12T245 -14Q156 -14 112 42T68 180V480H188V214Q188 86 278 86Q332 86 361 124T390 216V480H510Z" />
<glyph unicode="v" glyph-name="v" horiz-adv-x="513" d="M194 0L0 480H131L257 130H259L386 480H513L322 0H194Z" />
<glyph unicode="w" glyph-name="w" horiz-adv-x="804" d="M171 0L4 480H134L234 136H236L339 480H467L571 136H573L675 480H800L634 0H512L403 336H401L293 0H171Z" />
<glyph unicode="x" glyph-name="x" horiz-adv-x="537" d="M-1 0L194 255L21 480H165L269 331L376 480H514L342 255L538 0H392L267 175L141 0H-1Z" />
<glyph unicode="y" glyph-name="y" horiz-adv-x="513" d="M125 -240Q71 -240 42 -233L52 -129Q74 -136 104 -136T149 -120Q165 -104 182 -61L206 0L0 480H133L267 131H269L388 480H513L286 -103Q232 -240 125 -240Z" />
<glyph unicode="z" glyph-name="z" horiz-adv-x="482" d="M34 0V106L293 384H46V480H436V374L176 98H448V0H34Z" />
<glyph unicode="{" glyph-name="braceleft" horiz-adv-x="330" d="M10 244V332Q37 332 58 348T79 402V600Q79 664 116 698T207 732H280V648H225Q181 648 181 588V400Q180 348 148 320T83 289V287Q146 283 170 227Q180 203 181 170V-12Q181 -72 225 -72H280V-156H207Q153
-156 116 -122T79 -24V167Q79 208 58 226T10 244Z" />
<glyph unicode="|" glyph-name="bar" horiz-adv-x="222" d="M60 750H162V-250H60V750Z" />
<glyph unicode="}" glyph-name="braceright" horiz-adv-x="330" d="M320 244Q293 244 272 226T251 167V-24Q251 -88 214 -122T123 -156H50V-72H105Q149 -72 149 -12V170Q150 254 218 280Q232 286 247 287V289Q214 292 182 320T149 400V588Q149 648 105 648H50V732H123Q177
732 214 698T251 600V402Q251 364 272 348T320 332V244Z" />
<glyph unicode="~" glyph-name="asciitilde" horiz-adv-x="666" d="M439 317Q484 317 517 380L594 315Q532 213 441 213Q382 213 322 251T222 289T149 226L72 291Q134 394 225 394Q284 394 334 362T400 323Q416 317 439 317Z" />
</font>
</defs>
</svg>
