<?xml version="1.0" standalone="no"?> <!DOCTYPE svg PUBLIC "-//W3C//DTD SVG 1.0//EN" "http://www.w3.org/TR/2001/REC-SVG-20010904/DTD/svg10.dtd" > <svg xmlns="http://www.w3.org/2000/svg" width="100%" height="100%">
<defs >
<font id="avenirnextltproboldit" horiz-adv-x="481" ><font-face
    font-family="AvenirNext LT Pro Medium"
    units-per-em="1000"
    panose-1="2 11 8 4 2 2 2 2 2 4"
    ascent="756"
    descent="-244"
    alphabetic="0" />
<missing-glyph horiz-adv-x="512" d="M222 117H278V184H222V117ZM225 234H271Q271 286 277 306Q283 325 320 358Q357 392 370 418T383 478Q383 537 348 573T259 609Q203 609 167 575T124 472L174 464Q185 559 256 559Q287 559 309 535T332 474Q332 454 323 437T282
391Q251 360 236 332Q223 307 223 251L225 234ZM462 50H50V667H462V50ZM512 718H0V0H512V718Z" />
<glyph unicode=" " glyph-name="space" horiz-adv-x="250" />
<glyph unicode="!" glyph-name="exclam" horiz-adv-x="353" d="M243 236H80L163 708H327L243 236ZM236 92Q236 50 209 21T139 -8Q99 -8 74 15T49 76Q49 118 77 147T147 176Q186 176 211 152T236 92Z" />
<glyph unicode="&quot;" glyph-name="quotedbl" horiz-adv-x="490" d="M418 438H291L339 708H466L418 438ZM225 438H98L146 708H274L225 438Z" />
<glyph unicode="#" glyph-name="numbersign" horiz-adv-x="601" d="M571 405H471L439 303H524L506 201H408L343 0H235L299 201H218L154 0H46L110 201H25L43 303H141L175 405H90L107 507H207L271 708H379L316 507H396L460 708H568L504 507H589L571 405ZM364 405H283L250
303H331L364 405Z" />
<glyph unicode="$" glyph-name="dollar" horiz-adv-x="644" d="M615 638L508 540Q469 588 401 590L372 423Q465 392 514 347T564 219Q564 118 487 57T296 -10L283 -84H213L225 -10Q161 -7 99 19T2 91L121 191Q141 162 177 142T249 121L280 300Q196 324 146 367T96
490Q96 590 171 652T351 718L364 790H435L422 718Q552 708 615 638ZM330 589Q293 587 270 567T246 510Q246 461 304 443L330 589ZM408 206Q408 258 348 281L319 121Q358 123 383 146T408 206Z" />
<glyph unicode="%" glyph-name="percent" horiz-adv-x="908" d="M865 202Q865 112 806 51T656 -11Q582 -11 534 32T486 147Q486 236 545 297T695 359Q770 359 817 316T865 202ZM751 189Q751 217 734 236T687 256Q649 256 625 229T600 160Q600 131 617 112T663
92Q703 92 727 119T751 189ZM442 563Q442 473 383 412T233 350Q159 350 111 393T63 508Q63 597 122 658T273 720Q348 720 395 677T442 563ZM329 550Q329 578 312 597T264 617Q226 617 202 590T177 521Q177 492 194 473T241 453Q280 453 304 480T329 550ZM771 694L224
-35L153 11L699 740L771 694Z" />
<glyph unicode="&amp;" glyph-name="ampersand" horiz-adv-x="777" d="M741 379L574 177L725 0H527L470 72Q374 -14 257 -14Q153 -14 87 35T20 179Q20 257 70 312T207 399Q161 457 161 529Q161 614 223 670T380 727Q470 727 526 682T582 556Q582 434 409 361L482
274L558 379H741ZM441 549Q441 577 425 594T380 611Q347 611 326 589T304 534Q304 485 340 449Q385 465 413 491T441 549ZM384 174L279 303Q180 270 180 194Q180 160 206 138T269 116Q334 116 384 174Z" />
<glyph unicode="&apos;" glyph-name="quotesingle" horiz-adv-x="296" d="M225 438H98L145 708H272L225 438Z" />
<glyph unicode="(" glyph-name="parenleft" horiz-adv-x="342" d="M208 -121L94 -165Q12 -20 12 170Q12 322 73 469T250 742L348 681Q245 566 192 433T138 171Q138 5 208 -121Z" />
<glyph unicode=")" glyph-name="parenright" horiz-adv-x="342" d="M125 698L239 742Q321 598 321 407Q321 255 260 108T83 -164L-15 -104Q88 12 141 144T195 406Q195 572 125 698Z" />
<glyph unicode="*" glyph-name="asterisk" horiz-adv-x="486" d="M338 708V576L467 617L500 520L371 480L452 371L364 310L282 420L203 313L117 375L199 480L68 524L102 621L231 577V708H338Z" />
<glyph unicode="+" glyph-name="plus" horiz-adv-x="666" d="M611 240H399V31H269V240H56V366H268V575H398V366H611V240Z" />
<glyph unicode="," glyph-name="comma" horiz-adv-x="300" d="M220 158L74 -124H-57L67 158H220Z" />
<glyph unicode="-" glyph-name="hyphen" horiz-adv-x="326" d="M268 197H15L38 324H290L268 197Z" />
<glyph unicode="." glyph-name="period" horiz-adv-x="300" d="M203 94Q203 52 175 23T104 -7Q63 -7 38 17T12 78Q12 121 41 150T113 180Q152 180 177 156T203 94Z" />
<glyph unicode="/" glyph-name="slash" horiz-adv-x="413" d="M484 723L38 -51L-65 -15L380 760L484 723Z" />
<glyph unicode="0" glyph-name="zero" horiz-adv-x="644" d="M379 726Q442 726 489 705T564 648T604 567T617 471Q617 407 607 343T571 212T509 96T414 14T283 -18Q160 -18 101 53T42 234Q42 316 60 398T116 555T222 678T379 726ZM366 590Q320 590 282 539T225
413T206 259Q206 197 227 159T292 121Q359 121 404 223T449 452Q449 590 366 590Z" />
<glyph unicode="1" glyph-name="one" horiz-adv-x="644" d="M390 0H226L319 525L169 427L108 551L361 708H515L390 0Z" />
<glyph unicode="2" glyph-name="two" horiz-adv-x="644" d="M263 142H551L526 0H11L35 138L354 387Q439 457 439 510Q439 545 417 565T354 586Q312 586 283 560T239 485L89 516Q119 616 193 671T368 727Q473 727 541 674T609 530Q609 488 598 454T560 389T510
337T443 283L263 142Z" />
<glyph unicode="3" glyph-name="three" horiz-adv-x="644" d="M290 426Q357 426 393 451T429 523Q429 555 408 574T349 593Q272 593 239 523L105 577Q140 652 208 689T362 727Q458 727 525 679T592 539Q592 471 551 428T452 371V369Q502 355 531 315T561 222Q561
108 479 45T279 -19Q180 -19 111 27T19 161L171 202Q193 120 285 120Q334 120 364 145T395 214Q395 306 263 306H219L239 426H290Z" />
<glyph unicode="4" glyph-name="four" horiz-adv-x="644" d="M579 139H482L458 0H306L329 139H-3L22 280L374 708H579L502 272H602L579 139ZM351 272L401 548H397L178 272H351Z" />
<glyph unicode="5" glyph-name="five" horiz-adv-x="644" d="M298 568L272 452Q304 459 339 459Q381 459 419 448T490 414T543 349T563 251Q563 184 538 131T473 46T383 -2T282 -19Q183 -19 113 27T18 151L168 200Q179 164 209 143T279 121Q332 121 364 152T397
235T362 312T270 337Q191 337 96 302L182 708H600L574 568H298Z" />
<glyph unicode="6" glyph-name="six" horiz-adv-x="644" d="M578 258Q578 142 497 62T279 -18Q166 -18 94 41T21 209Q21 319 128 446L350 708H556L337 462L331 454Q346 459 367 459Q465 459 521 400T578 258ZM412 247Q412 292 383 318T315 345Q256 345 220 308T184
213Q184 169 214 142T286 115Q344 115 378 151T412 247Z" />
<glyph unicode="7" glyph-name="seven" horiz-adv-x="644" d="M619 577L234 0H35L435 567H112L136 708H642L619 577Z" />
<glyph unicode="8" glyph-name="eight" horiz-adv-x="644" d="M201 199Q201 156 227 134T290 112Q346 112 376 142T407 220Q407 259 382 283T318 307Q266 307 234 277T201 199ZM457 369L458 366Q502 350 533 309T564 216Q564 107 487 45T283 -18Q240 -18 201 -8T125
23T67 85T45 179Q45 256 93 310T209 379V382Q171 400 148 435T124 514Q124 615 200 670T381 726Q473 726 536 681T600 549Q600 476 558 432T457 369ZM271 506Q271 473 292 452T349 431Q390 431 418 456T446 524Q446 559 424 579T366 599Q324 599 298 573T271 506Z"
/>
<glyph unicode="9" glyph-name="nine" horiz-adv-x="644" d="M625 499Q625 389 518 262L296 0H90L309 246L315 254Q300 249 279 249Q181 249 125 308T68 450Q68 566 149 646T367 726Q480 726 552 667T625 499ZM462 495Q462 539 432 566T360 593Q302 593 268 557T234
461Q234 416 263 390T331 363Q390 363 426 400T462 495Z" />
<glyph unicode=":" glyph-name="colon" horiz-adv-x="330" d="M216 94Q216 54 188 25T119 -4Q80 -4 55 19T30 79Q30 120 58 148T128 177Q166 177 191 153T216 94ZM272 419Q272 378 245 349T176 320Q137 320 112 343T87 403Q87 445 115 473T184 501Q222 501 247
478T272 419Z" />
<glyph unicode=";" glyph-name="semicolon" horiz-adv-x="330" d="M240 158L95 -124H-40L84 158H240ZM272 419Q272 378 245 349T176 320Q137 320 112 343T87 403Q87 445 115 473T184 501Q222 501 247 478T272 419Z" />
<glyph unicode="&lt;" glyph-name="less" horiz-adv-x="666" d="M587 37L79 251V354L587 568V432L281 301L587 174V37Z" />
<glyph unicode="=" glyph-name="equal" horiz-adv-x="666" d="M598 335H68V458H598V335ZM598 150H68V273H598V150Z" />
<glyph unicode="&gt;" glyph-name="greater" horiz-adv-x="666" d="M587 251L79 37V174L385 301L79 432V568L587 354V251Z" />
<glyph unicode="?" glyph-name="question" horiz-adv-x="543" d="M418 345Q379 319 364 301T344 250L340 224H188L194 263Q203 313 226 345T299 414L339 444Q396 483 396 528Q396 589 327 589Q287 589 261 562T226 494L78 520Q99 616 172 671T346 727Q442 727
502 684T563 546Q563 481 529 438T418 345ZM345 92Q345 50 318 21T248 -8Q208 -8 183 15T158 76Q158 118 186 147T256 176Q295 176 320 152T345 92Z" />
<glyph unicode="@" glyph-name="at" horiz-adv-x="800" d="M545 160Q505 160 481 177T457 224H454Q436 198 404 179T334 160Q273 160 240 194T206 286Q206 348 233 409T315 512T436 554Q474 554 498 538T527 500H528L541 534H647L587 375Q560 299 560 281Q560
267 565 262T585 257Q630 257 661 309T693 438Q693 535 631 585T463 636Q321 636 230 541T138 307Q138 197 209 135T401 73Q524 73 628 156L678 88Q562 -18 389 -18Q223 -18 126 67T28 299Q28 481 154 603T465 726Q610 726 702 652T794 447Q794 327 725 244T545
160ZM479 405Q479 459 429 459Q392 459 358 410T324 309T372 258Q415 258 447 307T479 405Z" />
<glyph unicode="A" glyph-name="A" horiz-adv-x="710" d="M664 0H489L465 141H192L107 0H-83L368 708H530L664 0ZM448 275L411 526L263 275H448Z" />
<glyph unicode="B" glyph-name="B" horiz-adv-x="664" d="M420 708Q505 708 566 670T627 553Q627 484 586 437T476 372V370Q532 361 567 321T603 219Q603 114 520 57T300 0H18L143 708H420ZM368 575H277L251 423H353Q396 423 429 443T463 510Q463 575 368 575ZM337
303H229L200 134H297Q359 134 398 157T437 231Q437 265 411 284T337 303Z" />
<glyph unicode="C" glyph-name="C" horiz-adv-x="684" d="M556 209L649 99Q542 -19 366 -19Q217 -19 129 65T41 289Q41 473 162 600T462 727Q544 727 611 698T714 622L591 512Q548 578 457 578Q354 578 287 498T219 309Q219 233 265 183T393 132Q488 132 556 209Z" />
<glyph unicode="D" glyph-name="D" horiz-adv-x="769" d="M18 0L143 708H405Q467 708 524 691T631 640T709 547T739 410Q739 226 618 113T307 0H18ZM281 567L207 144H314Q432 144 499 216T566 390Q566 468 517 517T372 567H281Z" />
<glyph unicode="E" glyph-name="E" horiz-adv-x="587" d="M500 0H18L143 708H596L571 566H277L253 429H533L509 295H229L203 143H525L500 0Z" />
<glyph unicode="F" glyph-name="F" horiz-adv-x="561" d="M563 566H282L255 415H520L496 278H231L182 0H18L143 708H588L563 566Z" />
<glyph unicode="G" glyph-name="G" horiz-adv-x="749" d="M401 126Q464 128 504 147L527 280H389L414 417H705L640 43Q521 -19 379 -19Q226 -19 134 64T41 289Q41 473 161 600T460 727Q545 727 613 700T720 622L599 513Q552 581 457 581Q355 581 285 501T214 308Q214
227 263 177T401 126Z" />
<glyph unicode="H" glyph-name="H" horiz-adv-x="757" d="M626 0H460L512 298H237L184 0H18L143 708H309L261 439H537L584 708H751L626 0Z" />
<glyph unicode="I" glyph-name="I" horiz-adv-x="315" d="M185 0H18L143 708H310L185 0Z" />
<glyph unicode="J" glyph-name="J" horiz-adv-x="525" d="M442 239Q435 199 426 168T398 99T353 38T284 -2T187 -19Q98 -19 40 25T-34 146L120 196Q124 168 141 150T186 131Q227 131 247 159T276 240L358 708H526L442 239Z" />
<glyph unicode="K" glyph-name="K" horiz-adv-x="679" d="M654 0H447L242 333H239L181 0H18L143 708H306L253 411H256L537 708H749L402 371L654 0Z" />
<glyph unicode="L" glyph-name="L" horiz-adv-x="525" d="M462 0H18L143 708H310L210 145H488L462 0Z" />
<glyph unicode="M" glyph-name="M" horiz-adv-x="953" d="M823 0H660L753 507H749L474 0H357L263 507H259L174 0H18L143 708H376L458 249H462L701 708H948L823 0Z" />
<glyph unicode="N" glyph-name="N" horiz-adv-x="789" d="M645 0H460L265 470H262L182 0H18L143 708H330L524 241H526L606 708H770L645 0Z" />
<glyph unicode="O" glyph-name="O" horiz-adv-x="831" d="M460 726Q619 726 710 641T802 413Q802 231 685 107T386 -18Q226 -18 134 67T41 295Q41 476 160 601T460 726ZM395 132Q501 132 565 212T629 400Q629 477 581 527T449 578Q345 578 280 498T214 310Q214
233 262 183T395 132Z" />
<glyph unicode="P" glyph-name="P" horiz-adv-x="637" d="M376 708Q500 708 567 656T634 511Q634 388 552 329T322 269H231L183 0H18L143 708H376ZM325 401Q467 401 467 494Q467 538 438 555T353 573H285L254 401H325Z" />
<glyph unicode="Q" glyph-name="Q" horiz-adv-x="837" d="M791 427Q791 316 748 243T649 133L648 130L798 133L774 0H377Q225 0 133 81T41 300Q41 479 159 602T455 726Q607 726 699 645T791 427ZM619 406Q619 481 574 530T447 579Q344 579 279 501T213 319Q213
244 259 194T387 144Q488 144 553 222T619 406Z" />
<glyph unicode="R" glyph-name="R" horiz-adv-x="656" d="M459 305L603 0H415L296 285H228L180 0H18L143 708H385Q501 708 567 658T633 520Q633 436 587 381T459 305ZM324 404Q465 404 465 496Q465 572 351 572H280L250 404H324Z" />
<glyph unicode="S" glyph-name="S" horiz-adv-x="585" d="M585 636L472 536Q432 591 355 591Q315 591 282 570T248 506Q248 478 269 460T337 426Q434 392 482 344T531 218Q531 157 505 110T436 35T342 -5T239 -19Q160 -19 88 9T-26 91L97 191Q118 159 159 139T242
119Q290 119 323 140T356 205Q356 239 329 261T246 302Q166 329 122 371T78 492Q78 598 160 662T364 727Q428 727 489 703T585 636Z" />
<glyph unicode="T" glyph-name="T" horiz-adv-x="553" d="M598 565H404L304 0H138L237 565H39L65 708H623L598 565Z" />
<glyph unicode="U" glyph-name="U" horiz-adv-x="737" d="M658 260Q635 129 554 56T331 -18Q203 -18 128 41T52 203Q52 231 57 264L135 708H300L224 279Q221 260 221 238Q221 190 250 159T340 127Q415 127 449 169T495 277L572 708H736L658 260Z" />
<glyph unicode="V" glyph-name="V" horiz-adv-x="674" d="M767 708L345 0H170L62 708H239L294 202H298L574 708H767Z" />
<glyph unicode="W" glyph-name="W" horiz-adv-x="1014" d="M1090 708L750 0H584L536 484H533L298 0H133L71 708H247L268 232H271L491 708H663L701 232H704L915 708H1090Z" />
<glyph unicode="X" glyph-name="X" horiz-adv-x="687" d="M630 0H439L334 253L128 0H-78L254 374L98 708H285L374 484L554 708H755L455 370L630 0Z" />
<glyph unicode="Y" glyph-name="Y" horiz-adv-x="613" d="M727 708L383 301L329 0H163L216 301L35 708H221L322 440L525 708H727Z" />
<glyph unicode="Z" glyph-name="Z" horiz-adv-x="620" d="M532 0H-31L-6 144L406 566H99L124 708H648L624 574L207 145H558L532 0Z" />
<glyph unicode="[" glyph-name="bracketleft" horiz-adv-x="342" d="M177 -156H-37L119 732H334L316 633H227L106 -57H195L177 -156Z" />
<glyph unicode="\" glyph-name="backslash" horiz-adv-x="415" d="M422 -15L309 -52L1 723L114 762L422 -15Z" />
<glyph unicode="]" glyph-name="bracketright" horiz-adv-x="342" d="M203 -156H-10L7 -57H96L218 633H129L146 732H360L203 -156Z" />
<glyph unicode="^" glyph-name="asciicircum" horiz-adv-x="690" d="M616 343H468L344 556L221 343H73L286 708H404L616 343Z" />
<glyph unicode="_" glyph-name="underscore" horiz-adv-x="500" d="M500 -164H0V-75H500V-164Z" />
<glyph unicode="`" glyph-name="grave" horiz-adv-x="300" d="M173 716L282 572H162L10 716H173Z" />
<glyph unicode="a" glyph-name="a" horiz-adv-x="559" d="M503 352Q503 321 497 291L463 97Q453 40 453 0H311Q311 19 315 53H313Q258 -12 161 -12Q99 -12 53 20T7 120Q7 314 349 314Q351 326 351 337Q351 393 273 393Q204 393 142 346L76 438Q120 473 178 493T295
513Q389 513 446 473T503 352ZM340 218H326Q153 218 153 146Q153 95 219 95Q264 95 295 123T335 194L340 218Z" />
<glyph unicode="b" glyph-name="b" horiz-adv-x="659" d="M245 434H247Q273 470 315 490T406 511Q501 511 556 452T612 297Q612 167 534 78T337 -12Q284 -12 239 10T172 71H170L158 0H10L143 756H304L245 434ZM453 276Q453 323 426 352T350 382Q291 382 250 335T209
222Q209 176 237 147T314 117Q376 117 414 162T453 276Z" />
<glyph unicode="c" glyph-name="c" horiz-adv-x="500" d="M510 436L409 340Q398 358 374 370T322 383Q259 383 217 337T175 226Q175 180 202 150T283 119Q344 119 387 164L463 62Q377 -14 262 -14Q153 -14 87 46T20 205Q20 331 106 422T326 513Q385 513 434 494T510 436Z" />
<glyph unicode="d" glyph-name="d" horiz-adv-x="656" d="M452 434L507 756H667L533 0H386L398 68H395Q339 -12 226 -12Q131 -12 76 47T20 202Q20 331 98 421T295 511Q406 511 450 434H452ZM179 223Q179 177 206 148T282 118Q342 118 382 165T423 277Q423 323
395 352T319 382Q257 382 218 337T179 223Z" />
<glyph unicode="e" glyph-name="e" horiz-adv-x="587" d="M527 206H170Q169 202 169 197Q169 157 202 133T279 108Q349 108 398 160L499 81Q409 -15 265 -15Q158 -15 89 44T20 209Q20 338 105 425T320 513Q420 513 480 458T540 303Q540 258 527 206ZM397 304Q398
311 398 324Q398 358 374 379T307 401Q258 401 224 371T181 304H397Z" />
<glyph unicode="f" glyph-name="f" horiz-adv-x="361" d="M443 765L414 637Q395 645 372 645Q305 645 287 551L278 498H390L369 378H259L192 0H35L102 378H11L32 498H120L130 549Q139 597 154 634T195 704T265 756T368 775Q414 775 443 765Z" />
<glyph unicode="g" glyph-name="g" horiz-adv-x="656" d="M456 432H459L470 498H621L542 46Q517 -97 442 -168T223 -240Q154 -240 85 -218T-25 -156L65 -43Q126 -110 222 -110Q296 -110 333 -74T383 29L390 62H387Q365 33 324 14T234 -5Q137 -5 81 52T24 203Q24
332 102 421T300 511Q412 511 456 432ZM182 223Q182 178 208 148T285 118Q346 118 387 165T428 278Q428 325 400 354T323 383Q260 383 221 336T182 223Z" />
<glyph unicode="h" glyph-name="h" horiz-adv-x="615" d="M497 0H337L384 270Q389 293 389 312Q389 379 323 379Q281 379 254 348T218 268L170 0H10L143 756H304L247 433H249Q272 466 311 488T397 511Q476 511 516 468T556 360Q556 327 551 306L497 0Z" />
<glyph unicode="i" glyph-name="i" horiz-adv-x="294" d="M170 0H11L98 498H259L170 0ZM293 665Q293 625 267 597T200 569Q162 569 138 592T113 649Q113 689 140 717T208 745Q245 745 269 722T293 665Z" />
<glyph unicode="j" glyph-name="j" horiz-adv-x="297" d="M171 -19Q162 -70 148 -106T109 -176T42 -226T-59 -244Q-96 -244 -128 -235L-99 -102Q-84 -107 -65 -107Q-31 -107 -14 -85T10 -19L101 498H262L171 -19ZM296 665Q296 625 270 597T203 569Q165 569 141
592T116 649Q116 689 143 717T211 745Q248 745 272 722T296 665Z" />
<glyph unicode="k" glyph-name="k" horiz-adv-x="572" d="M533 0H342L215 239H212L170 0H10L143 756H304L222 296H225L414 498H616L376 265L533 0Z" />
<glyph unicode="l" glyph-name="l" horiz-adv-x="295" d="M172 0H10L143 756H306L172 0Z" />
<glyph unicode="m" glyph-name="m" horiz-adv-x="925" d="M79 395Q89 445 94 498H247Q246 489 243 461T239 426H241Q298 511 392 511Q449 511 485 488T536 423Q600 511 701 511Q782 511 824 466T866 354Q866 327 862 307L807 0H647L694 270Q699 293 699 312Q699
380 634 380Q594 380 568 348T533 268L486 0H325L375 285Q378 300 378 313Q378 344 363 362T318 380Q279 380 253 349T218 270L170 0H10L79 395Z" />
<glyph unicode="n" glyph-name="n" horiz-adv-x="615" d="M239 426H241Q297 511 397 511Q476 511 516 468T556 360Q556 327 551 306L497 0H337L384 270Q389 293 389 312Q389 379 323 379Q281 379 254 348T218 270L170 0H10L79 395Q89 445 94 498H247Q246 489 243
462T239 426Z" />
<glyph unicode="o" glyph-name="o" horiz-adv-x="626" d="M273 -14Q163 -14 92 46T20 205Q20 333 103 423T324 513Q436 513 508 454T580 294Q580 164 496 75T273 -14ZM422 277Q422 323 394 352T317 382Q255 382 216 335T177 222Q177 176 205 147T281 118Q344 118
383 164T422 277Z" />
<glyph unicode="p" glyph-name="p" horiz-adv-x="657" d="M178 62L126 -240H-34L96 498H248L236 429H239Q298 510 402 510Q498 510 554 450T611 296Q611 166 533 76T335 -14Q224 -14 180 62H178ZM451 275Q451 321 424 351T349 381Q289 381 248 334T207 221Q207
175 235 146T312 116Q374 116 412 161T451 275Z" />
<glyph unicode="q" glyph-name="q" horiz-adv-x="655" d="M387 62H385Q330 -12 227 -12Q132 -12 76 47T19 202Q19 331 97 421T295 511Q346 511 389 489T455 426H457L470 498H621L492 -240H332L387 62ZM178 223Q178 177 205 148T281 118Q341 118 382 165T423 277Q423
323 394 352T318 382Q256 382 217 337T178 223Z" />
<glyph unicode="r" glyph-name="r" horiz-adv-x="379" d="M237 425H239Q294 511 377 511Q395 511 411 507L385 365Q367 370 345 370Q283 370 252 334T213 256L168 0H8L79 395Q89 445 94 498H246Q244 467 237 425Z" />
<glyph unicode="s" glyph-name="s" horiz-adv-x="464" d="M-32 68L68 159Q107 102 183 102Q215 102 234 114T254 147Q254 166 238 177T183 200Q109 222 75 253T41 340Q41 419 106 466T266 513Q325 513 375 493T455 436L354 351Q320 397 257 397Q228 397 208 386T188
353Q188 337 203 328T253 308Q328 288 366 254T404 158Q404 73 338 28T179 -18Q41 -18 -32 68Z" />
<glyph unicode="t" glyph-name="t" horiz-adv-x="364" d="M92 377H10L32 498H111L134 630H290L267 498H373L351 377H248L212 182Q210 164 210 155Q210 112 262 112Q282 112 306 118L291 3Q255 -12 203 -12Q48 -12 48 109Q48 139 54 166L92 377Z" />
<glyph unicode="u" glyph-name="u" horiz-adv-x="614" d="M345 72H342Q318 34 277 11T186 -13Q108 -13 68 30T28 139Q28 170 33 193L86 498H247L199 228Q195 200 195 186Q195 119 261 119Q302 119 329 150T366 229L414 498H574L504 103Q494 53 489 0H337Q338 9
341 37T345 72Z" />
<glyph unicode="v" glyph-name="v" horiz-adv-x="554" d="M587 498L293 0H119L27 498H196L237 171H240L413 498H587Z" />
<glyph unicode="w" glyph-name="w" horiz-adv-x="856" d="M892 498L620 0H459L422 313H420L258 0H97L29 498H196L220 180H223L377 498H538L568 180H571L724 498H892Z" />
<glyph unicode="x" glyph-name="x" horiz-adv-x="562" d="M507 0H330L252 153L116 0H-77L175 261L42 498H217L286 362L405 498H592L363 258L507 0Z" />
<glyph unicode="y" glyph-name="y" horiz-adv-x="556" d="M594 498L268 -75Q220 -162 173 -201T42 -240Q-5 -240 -40 -229L-16 -97Q6 -106 31 -106Q63 -106 83 -90T123 -39L147 2L32 498H207L257 172H259L424 498H594Z" />
<glyph unicode="z" glyph-name="z" horiz-adv-x="509" d="M418 0H-23L-1 125L282 376H57L78 498H500L479 378L191 124H440L418 0Z" />
<glyph unicode="{" glyph-name="braceleft" horiz-adv-x="342" d="M214 -156H132Q79 -156 49 -127T18 -45Q18 -27 21 -8L50 159Q63 233 -4 233L16 343Q83 343 95 413L125 584Q137 651 181 691T288 732H370L352 627H305Q258 627 248 567L219 400Q210 348 175 321T106
289V287Q134 284 157 263T181 198Q181 181 179 172L150 9Q148 -9 148 -16Q148 -51 185 -51H232L214 -156Z" />
<glyph unicode="|" glyph-name="bar" horiz-adv-x="241" d="M186 -250H56L55 750H186V-250Z" />
<glyph unicode="}" glyph-name="braceright" horiz-adv-x="342" d="M122 732H204Q257 732 287 703T318 621Q318 604 315 584L286 417Q273 343 340 343L320 233Q253 233 241 163L211 -8Q199 -75 155 -115T48 -156H-34L-16 -51H31Q78 -51 88 9L117 176Q126 228 161
255T230 287V289Q202 292 179 313T155 378Q155 395 157 404L186 567Q188 585 188 592Q188 627 151 627H104L122 732Z" />
<glyph unicode="~" glyph-name="asciitilde" horiz-adv-x="666" d="M593 287V285Q566 239 534 212T454 185Q402 185 342 223Q281 261 235 261Q185 261 151 191L85 295Q136 394 222 394Q280 394 342 357Q411 317 441 317Q466 317 485 335T528 388L593 287Z" />
</font>
</defs>
</svg>
